<?xml version="1.0" encoding="UTF-8"?>
<svg version="1.1" xmlns="http://www.w3.org/2000/svg" width="500" height="500">
<path d="M0 0 C165 0 330 0 500 0 C500 165 500 330 500 500 C335 500 170 500 0 500 C0 335 0 170 0 0 Z " fill="#151342" transform="translate(0,0)"/>
<path d="M0 0 C1.36302465 4.38725453 0.24241696 7.78704416 -1.0625 12.0625 C-1.29437012 12.82328857 -1.52624023 13.58407715 -1.76513672 14.36791992 C-5.72463449 26.84814053 -12.89626439 38.59750959 -24 46 C-25.11187075 49.57402364 -25.11187075 49.57402364 -24 53 C-24.33 53.66 -24.66 54.32 -25 55 C-24.01 55.33 -23.02 55.66 -22 56 C-22 55.01 -22 54.02 -22 53 C-20.68 53 -19.36 53 -18 53 C-15.24958334 50.58333229 -15.24958334 50.58333229 -13 48 C-15.88918435 58.27265548 -26.00105792 64.490355 -34.6640625 69.55859375 C-37.42000673 71.08746771 -40.19893829 72.55552343 -43 74 C-44.01707031 74.52851563 -45.03414062 75.05703125 -46.08203125 75.6015625 C-50.38907768 77.8011359 -54.5831294 79.93925242 -59.1875 81.4375 C-64.20238909 83.20315887 -68.00916797 86.57818834 -72 90 C-72.86625 90.721875 -73.7325 91.44375 -74.625 92.1875 C-82.89753611 101.98392434 -87.98960537 113.93135844 -88.1875 126.8125 C-88.4335662 131.69040049 -90.13801427 133.76301427 -93.5625 137.1875 C-95.01865517 138.48463666 -96.49069369 139.76511302 -98 141 C-102.97375678 138.75414066 -106.26482215 135.74469627 -109 131 C-109.78190036 127.29447223 -110.13962405 123.65614712 -110.4921875 119.88671875 C-112.11306331 107.48078466 -118.39133017 96.43962529 -127.96484375 88.5078125 C-130.85177061 86.3689377 -133.81447956 84.65912523 -137 83 C-137 82.34 -137 81.68 -137 81 C-140.3 80.01 -143.6 79.02 -147 78 C-147 77.34 -147 76.68 -147 76 C-148.5778125 75.7215625 -148.5778125 75.7215625 -150.1875 75.4375 C-159.66463663 73.00147544 -167.75883401 67.5563426 -175.1875 61.375 C-175.74010498 60.9200415 -176.29270996 60.46508301 -176.86206055 59.99633789 C-180.00289962 57.27539445 -181.82242433 55.00231241 -183 51 C-181.515 51.495 -181.515 51.495 -180 52 C-179.67 50.68 -179.34 49.36 -179 48 C-178.34 48 -177.68 48 -177 48 C-178.57212541 43.3818816 -180.35265473 40.45335731 -183.75 36.9375 C-192.70081856 27.27786892 -197.59019132 13.97023983 -199 1 C-196.62825811 3.37174189 -196.04184683 5.3000692 -194.875 8.4375 C-189.99264632 20.33734746 -181.28188595 32.01626088 -169.25 37.375 C-168.57453125 37.63023437 -167.8990625 37.88546875 -167.203125 38.1484375 C-165 39 -165 39 -162.4375 40.44140625 C-157.6791801 42.59887175 -152.85625859 43.53699039 -147.75 44.5625 C-146.68458984 44.78301025 -145.61917969 45.00352051 -144.52148438 45.23071289 C-137.46293898 46.64443325 -130.50007009 47.52834187 -123.33398438 48.11474609 C-117.22674449 48.72630976 -111.8915044 50.56586409 -106.29882812 53.05639648 C-101.18782621 55.26913581 -97.91515243 55.14339901 -92.7890625 53.1328125 C-92.07492187 52.80023438 -91.36078125 52.46765625 -90.625 52.125 C-80.33147284 47.88828823 -68.76340013 46.91514018 -57.8125 45.3125 C-56.9155542 45.18093506 -56.0186084 45.04937012 -55.09448242 44.91381836 C-51.03546765 44.34154615 -47.11154355 43.82123724 -43 44 C-43 43.34 -43 42.68 -43 42 C-41.80375 41.649375 -40.6075 41.29875 -39.375 40.9375 C-22.52079086 35.23955252 -12.38603881 26.88152483 -4 11 C-2.46788795 7.38490415 -1.14387753 3.75522952 0 0 Z " fill="#1C1C43" transform="translate(349,130)"/>
<path d="M0 0 C1.36302465 4.38725453 0.24241696 7.78704416 -1.0625 12.0625 C-1.29437012 12.82328857 -1.52624023 13.58407715 -1.76513672 14.36791992 C-6.96910294 30.7706685 -16.98777069 42.72506497 -32 51 C-32.65363525 51.38736328 -33.30727051 51.77472656 -33.98071289 52.17382812 C-39.53040529 55.4033619 -45.09517472 57.63265744 -51.1875 59.625 C-56.69226526 61.45032918 -61.80598195 63.39917745 -67 66 C-69.69050391 66.58939133 -72.24371432 66.76238917 -75 67 C-75 67.66 -75 68.32 -75 69 C-75.94875 69.33 -76.8975 69.66 -77.875 70 C-85.74424929 73.36797485 -92.17666922 79.87017813 -98 86 C-100.95488432 84.69023329 -102.71931076 83.37667093 -104.8125 80.9375 C-114.95281892 70.53661614 -130.06820199 64.18832402 -144.08203125 61.45703125 C-146.97243806 60.76827851 -149.40037938 59.41283729 -152 58 C-153.07378906 57.54753906 -154.14757812 57.09507812 -155.25390625 56.62890625 C-174.2871945 48.54050652 -187.9485595 35.86665395 -195.8125 16.52734375 C-197.52997285 11.42577144 -198.43244102 6.34288285 -199 1 C-196.62825811 3.37174189 -196.04184683 5.3000692 -194.875 8.4375 C-189.99264632 20.33734746 -181.28188595 32.01626088 -169.25 37.375 C-168.57453125 37.63023437 -167.8990625 37.88546875 -167.203125 38.1484375 C-165 39 -165 39 -162.4375 40.44140625 C-157.6791801 42.59887175 -152.85625859 43.53699039 -147.75 44.5625 C-146.68458984 44.78301025 -145.61917969 45.00352051 -144.52148438 45.23071289 C-137.46293898 46.64443325 -130.50007009 47.52834187 -123.33398438 48.11474609 C-117.22674449 48.72630976 -111.8915044 50.56586409 -106.29882812 53.05639648 C-101.18782621 55.26913581 -97.91515243 55.14339901 -92.7890625 53.1328125 C-92.07492187 52.80023438 -91.36078125 52.46765625 -90.625 52.125 C-80.33147284 47.88828823 -68.76340013 46.91514018 -57.8125 45.3125 C-56.9155542 45.18093506 -56.0186084 45.04937012 -55.09448242 44.91381836 C-51.03546765 44.34154615 -47.11154355 43.82123724 -43 44 C-43 43.34 -43 42.68 -43 42 C-41.80375 41.649375 -40.6075 41.29875 -39.375 40.9375 C-22.52079086 35.23955252 -12.38603881 26.88152483 -4 11 C-2.46788795 7.38490415 -1.14387753 3.75522952 0 0 Z " fill="#F7F7F9" transform="translate(349,130)"/>
<path d="M0 0 C0.33 0.66 0.66 1.32 1 2 C-9.7711726 17.54520881 -27.59993707 27.64551499 -45.375 33.5 C-50.29961967 35.53777366 -53.97815645 38.5515985 -58 42 C-58.86625 42.721875 -59.7325 43.44375 -60.625 44.1875 C-68.89753611 53.98392434 -73.98960537 65.93135844 -74.1875 78.8125 C-74.4335662 83.69040049 -76.13801427 85.76301427 -79.5625 89.1875 C-81.01865517 90.48463666 -82.49069369 91.76511302 -84 93 C-88.97375678 90.75414066 -92.26482215 87.74469627 -95 83 C-95.78190036 79.29447223 -96.13962405 75.65614712 -96.4921875 71.88671875 C-98.11306331 59.48078466 -104.39133017 48.43962529 -113.96484375 40.5078125 C-116.85177061 38.3689377 -119.81447956 36.65912523 -123 35 C-123 34.34 -123 33.68 -123 33 C-126.3 32.01 -129.6 31.02 -133 30 C-133 29.34 -133 28.68 -133 28 C-134.051875 27.814375 -135.10375 27.62875 -136.1875 27.4375 C-145.66463663 25.00147544 -153.75883401 19.5563426 -161.1875 13.375 C-161.74010498 12.9200415 -162.29270996 12.46508301 -162.86206055 11.99633789 C-166.00289962 9.27539445 -167.82242433 7.00231241 -169 3 C-167.8944811 3.93590504 -166.79064547 4.87379858 -165.6875 5.8125 C-165.07261719 6.33457031 -164.45773438 6.85664063 -163.82421875 7.39453125 C-162 9 -162 9 -160.47265625 10.609375 C-158.53205981 12.44187456 -156.31993139 13.21047339 -153.8671875 14.1875 C-152 15 -152 15 -148.875 16.9375 C-144.65225035 19.43147295 -140.0689324 20.56745484 -135.390625 21.9453125 C-116.25883455 27.89644548 -95.91846271 37.68431119 -86 56 C-86 56.66 -86 57.32 -86 58 C-85.34 58 -84.68 58 -84 58 C-83.73445313 57.26523438 -83.46890625 56.53046875 -83.1953125 55.7734375 C-76.70641026 40.71748786 -60.72299591 31.66582882 -46.25 25.875 C-40.226604 23.50442268 -34.17504334 21.3751422 -28 19.4375 C-16.18619192 15.61538562 -7.56430822 9.80558473 0 0 Z " fill="#7EC630" transform="translate(335,178)"/>
<path d="M0 0 C2.64 0 5.28 0 8 0 C10.27330129 5.84563188 11.04027872 11.83036317 12 18 C13.65 12.06 15.3 6.12 17 0 C19.97 0 22.94 0 26 0 C26.67099984 2.60311992 27.33695338 5.20735398 28 7.8125 C28.28617187 8.91948242 28.28617187 8.91948242 28.578125 10.04882812 C29.35262914 13.10535341 30 15.83373478 30 19 C30.66 19 31.32 19 32 19 C31.938125 18.0925 31.87625 17.185 31.8125 16.25 C31.77795796 10.66570424 33.52645691 5.34159368 35 0 C37.64 0 40.28 0 43 0 C41.10018176 10.14675651 38.77817711 20.05779258 36 30 C32.7 30 29.4 30 26 30 C24.68 24.39 23.36 18.78 22 13 C20.06349884 18.63345791 18.37010649 24.20339563 17 30 C13.7 30 10.4 30 7 30 C4.69 20.1 2.38 10.2 0 0 Z " fill="#F4F4F7" transform="translate(239,306)"/>
<path d="M0 0 C4.81581926 2.12252775 7.75983147 4.35000442 9.921875 9.3046875 C10.55001649 14.21429913 10.60240472 18.62127187 8.734375 23.2421875 C5.634981 26.76908412 2.34424212 30.06324241 -2.46875 30.54296875 C-7.00049728 30.66059607 -10.31574681 30.63736162 -14.515625 28.8046875 C-18.73920587 24.6841208 -20.70646986 20.61720838 -21.640625 14.8046875 C-20.78634408 9.48916178 -18.57056962 5.41823318 -14.43359375 1.91015625 C-9.66980196 -1.13307868 -5.35732438 -1.79248823 0 0 Z " fill="#F3F3F6" transform="translate(365.078125,305.6953125)"/>
<path d="M0 0 C3.44016766 2.75213413 6.8624229 6.13339581 7.42578125 10.66796875 C7.62063577 16.626415 6.68448523 19.89307607 3.1875 24.75 C-1.22876721 28.76478838 -5.54594865 29.09391889 -11.3046875 29.03515625 C-15.93008873 28.50921499 -18.64744048 26.07575738 -21.625 22.6875 C-24.31846651 18.29289675 -24.42892905 13.74992452 -23.8125 8.75 C-18.69179878 -1.30174683 -10.22245552 -4.54331356 0 0 Z " fill="#F3F3F6" transform="translate(226.8125,307.25)"/>
<path d="M0 0 C3.33772367 1.30606578 4.64993784 2.54129786 6.8125 5.375 C9.06529523 12.25195387 9.33484303 20.01789867 6.25 26.6875 C4.66312635 29.62825395 3.11738365 30.79700223 0 32 C-4.17776989 32.33156904 -6.90991872 32.41180849 -10.8125 30.9375 C-14.79342959 27.41153379 -15.79105118 24.02323616 -16.3203125 18.8984375 C-16.55637309 12.05268052 -16.25001209 7.46430126 -12 2 C-7.94633625 -0.7024425 -4.75468449 -0.52736817 0 0 Z " fill="#F4F4F7" transform="translate(92,304)"/>
<path d="M0 0 C3.62124612 2.41416408 5.04168805 5.36835268 6.25 9.5 C7.01022004 15.95342341 7.19642122 22.05666039 3.25 27.5 C1.0183496 29.99419751 -0.57140825 31.28999638 -3.8984375 31.8828125 C-7.83593781 32.07903345 -10.19737275 31.80570869 -13.6875 29.875 C-18.46871201 24.36936193 -18.16952667 17.74702152 -18.07421875 10.796875 C-17.6433407 6.41541627 -16.78753507 4.62432179 -13.75 1.5 C-9.31102442 -1.45931705 -5.0504567 -0.91826486 0 0 Z " fill="#F3F3F6" transform="translate(124.75,304.5)"/>
<path d="M0 0 C2.701875 -0.061875 5.40375 -0.12375 8.1875 -0.1875 C9.02949951 -0.21481201 9.87149902 -0.24212402 10.73901367 -0.27026367 C15.32319574 -0.32093869 18.29360873 0.00557089 22 3 C24.36086122 6.54129184 24.57269578 7.82750218 24 12 C22.700625 13.485 22.700625 13.485 21.375 15 C20.59125 15.99 19.8075 16.98 19 18 C19.36521065 21.09802862 19.36521065 21.09802862 21 24 C21.53625 25.11375 22.0725 26.2275 22.625 27.375 C23.305625 28.674375 23.305625 28.674375 24 30 C21.03 30 18.06 30 15 30 C14.16151196 28.54462432 13.32936066 27.08559627 12.5 25.625 C12.0359375 24.81289063 11.571875 24.00078125 11.09375 23.1640625 C10 21 10 21 10 19 C9.34 19 8.68 19 8 19 C8 22.63 8 26.26 8 30 C5.36 30 2.72 30 0 30 C0 20.1 0 10.2 0 0 Z " fill="#F1F1F5" transform="translate(173,306)"/>
<path d="M0 0 C3.91979179 1.82473066 5.45265502 2.90531005 7.375 6.75 C7.58125 7.4925 7.7875 8.235 8 9 C6.52093108 9.02689216 5.04172517 9.04634621 3.5625 9.0625 C2.32693359 9.07990234 2.32693359 9.07990234 1.06640625 9.09765625 C-1 9 -1 9 -2 8 C-6.01657143 7.77081758 -6.01657143 7.77081758 -10 8 C-12.50063147 10.50063147 -12.32420142 11.47811698 -12.375 14.9375 C-12.40335938 15.81277344 -12.43171875 16.68804687 -12.4609375 17.58984375 C-12.20746009 20.12841644 -12.20746009 20.12841644 -10.19921875 21.8203125 C-6.83948744 23.62251296 -4.59601057 22.98073016 -1 22 C0.96287824 20.08261145 0.96287824 20.08261145 2 18 C-0.97 18 -3.94 18 -7 18 C-7 16.35 -7 14.7 -7 13 C-1.72 13 3.56 13 9 13 C9 22.35135135 9 22.35135135 5 27 C1.0387897 30.60110028 -3.21786235 30.50611783 -8.34375 30.34765625 C-13.48248313 29.67508677 -16.01795599 27.08541707 -19.375 23.375 C-21.57599893 18.80369453 -21.67792708 14.9882042 -21 10 C-17.08872077 0.22180191 -9.6432675 -1.42667519 0 0 Z " fill="#F5F5F8" transform="translate(158,306)"/>
<path d="M0 0 C2.64 0 5.28 0 8 0 C8.33 3.63 8.66 7.26 9 11 C9.47308594 10.2059375 9.94617188 9.411875 10.43359375 8.59375 C15.77054227 0.35425053 15.77054227 0.35425053 19.53515625 -0.73046875 C21.78264613 -0.69128905 23.81119877 -0.50160028 26 0 C24.1328125 2.80078125 22.265625 5.6015625 20.3984375 8.40234375 C19.85445313 9.21832031 19.31046875 10.03429687 18.75 10.875 C18.22921875 11.65617187 17.7084375 12.43734375 17.171875 13.2421875 C16.59179688 14.11230469 16.59179688 14.11230469 16 15 C17.06541016 16.37285156 17.06541016 16.37285156 18.15234375 17.7734375 C19.08081828 18.97388942 20.00919882 20.17441403 20.9375 21.375 C21.40607422 21.97828125 21.87464844 22.5815625 22.35742188 23.203125 C25.88671875 27.7734375 25.88671875 27.7734375 27 30 C23.45392432 30.7193883 20.5189644 30.93207697 17 30 C13.70599311 26.70073111 11.33607579 23.01961644 9 19 C8.67 22.63 8.34 26.26 8 30 C5.36 30 2.72 30 0 30 C0 20.1 0 10.2 0 0 Z " fill="#F1F1F5" transform="translate(417,306)"/>
<path d="M0 0 C3.77260108 1.47153082 5.74673253 3.6200988 8 7 C8 7.99 8 8.98 8 10 C0.1021611 10.39489194 0.1021611 10.39489194 -4 7 C-6.850179 6.58290063 -8.28889564 6.47432716 -10.6328125 8.20703125 C-12.44904815 10.58889458 -12.36929173 12.09622435 -12.3125 15.0625 C-12.30863281 15.94035156 -12.30476563 16.81820313 -12.30078125 17.72265625 C-12.20899334 20.19662769 -12.20899334 20.19662769 -10 22 C-8.08993694 22.3176246 -8.08993694 22.3176246 -6 22.25 C-5.29875 22.25515625 -4.5975 22.2603125 -3.875 22.265625 C-1.7564331 22.15705515 -1.7564331 22.15705515 0 20 C2.68839385 19.73008094 5.29141936 19.91262643 8 20 C6.68954637 23.93136089 5.16791954 26.31206827 2 29 C-2.66226453 30.55408818 -7.14148363 30.72505056 -12 30 C-16.27727864 27.67588576 -19.18898209 24.52333309 -21 20 C-21.70358198 15.11583208 -21.63851284 10.48851634 -19.3125 6.0625 C-14.13897443 -0.78892575 -8.08782476 -1.00687399 0 0 Z " fill="#F5F5F8" transform="translate(402,306)"/>
<path d="M0 0 C1.36302465 4.38725453 0.24241696 7.78704416 -1.0625 12.0625 C-1.29437012 12.82328857 -1.52624023 13.58407715 -1.76513672 14.36791992 C-6.97718946 30.79615696 -16.99070607 42.68852059 -32 51 C-32.86496094 51.5053125 -33.72992188 52.010625 -34.62109375 52.53125 C-40.64322917 56 -40.64322917 56 -43 56 C-42.773125 55.071875 -42.54625 54.14375 -42.3125 53.1875 C-42.209375 52.135625 -42.10625 51.08375 -42 50 C-43.35444301 48.22809091 -43.35444301 48.22809091 -45 47 C-45 46.34 -45 45.68 -45 45 C-45.99 44.67 -46.98 44.34 -48 44 C-46.35 44 -44.7 44 -43 44 C-43 43.34 -43 42.68 -43 42 C-41.80375 41.649375 -40.6075 41.29875 -39.375 40.9375 C-22.52079086 35.23955252 -12.38603881 26.88152483 -4 11 C-2.46788795 7.38490415 -1.14387753 3.75522952 0 0 Z " fill="#EEEEF2" transform="translate(349,130)"/>
<path d="M0 0 C2.76628934 1.38314467 3.92891715 2.59306588 6 5 C6 5.99 6 6.98 6 8 C-0.0546875 8.1953125 -0.0546875 8.1953125 -2 8 C-2.66 7.34 -3.32 6.68 -4 6 C-4.99 6 -5.98 6 -7 6 C-7 7.32 -7 8.64 -7 10 C-6.31292969 10.25394531 -5.62585938 10.50789063 -4.91796875 10.76953125 C-4.01691406 11.11371094 -3.11585938 11.45789063 -2.1875 11.8125 C-0.84751953 12.31716797 -0.84751953 12.31716797 0.51953125 12.83203125 C2.98077859 13.99094929 4.37891084 14.83153008 6 17 C6.77669903 23.99029126 6.77669903 23.99029126 4.125 27.4375 C-0.32108734 30.70668187 -4.61294511 30.74133783 -10 30 C-12.78056664 28.63697714 -13.91377523 27.41562868 -16 25 C-16 23.68 -16 22.36 -16 21 C-13.36 21 -10.72 21 -8 21 C-7.67 21.66 -7.34 22.32 -7 23 C-4.47266765 23.65555119 -4.47266765 23.65555119 -2 24 C-2 22.35 -2 20.7 -2 19 C-3.216875 18.731875 -4.43375 18.46375 -5.6875 18.1875 C-9.22193288 17.30389178 -12.02196168 16.16584605 -15 14 C-16.61408479 10.77183041 -16.57258438 7.49069516 -16 4 C-12.16126221 -1.29481075 -5.9750037 -1.03077549 0 0 Z " fill="#F5F5F8" transform="translate(304,306)"/>
<path d="M0 0 C2.37174189 2.37174189 2.95815317 4.3000692 4.125 7.4375 C9.00735368 19.33734746 17.71811405 31.01626088 29.75 36.375 C31.16591373 36.9186318 32.58249787 37.46052346 34 38 C34.969375 38.53625 35.93875 39.0725 36.9375 39.625 C41.15643354 41.51921506 45.45782887 42.23698706 50 43 C45.42857143 46.80952381 45.42857143 46.80952381 42.75 48 C40.78571015 48.8695627 40.78571015 48.8695627 40.25 51.125 C40.1675 51.74375 40.085 52.3625 40 53 C24.93879155 47.65570023 13.54761082 36.70072487 6.2421875 22.609375 C2.85771709 15.18643025 0.86135843 8.10865003 0 0 Z " fill="#F1F1F4" transform="translate(150,131)"/>
<path d="M0 0 C2.8125 2.125 2.8125 2.125 4 5 C3.43359375 8.0078125 3.43359375 8.0078125 2 11 C-0.609375 12.609375 -0.609375 12.609375 -3.75 13.75 C-4.77609375 14.13671875 -5.8021875 14.5234375 -6.859375 14.921875 C-7.89578125 15.27765625 -8.9321875 15.6334375 -10 16 C-11.05703125 16.36480469 -12.1140625 16.72960937 -13.203125 17.10546875 C-16.52916531 18.16924421 -18.54015898 18.64872019 -22 18 C-23.75565012 16.36395621 -25.17016807 14.64820474 -26.60546875 12.7265625 C-28.06980823 10.73769912 -28.06980823 10.73769912 -31 9 C-30.67 7.68 -30.34 6.36 -30 5 C-28.2365625 4.566875 -28.2365625 4.566875 -26.4375 4.125 C-22.59940935 3.16717561 -18.80095735 2.09643 -15 1 C-10.05974743 -0.42187942 -5.09389277 -0.67815819 0 0 Z " fill="#FAFAFB" transform="translate(304,175)"/>
<path d="M0 0 C0.66 0.99 1.32 1.98 2 3 C1.34 3 0.68 3 0 3 C0.33 3.66 0.66 4.32 1 5 C1.99 5.33 2.98 5.66 4 6 C3.35933594 6.4846875 2.71867187 6.969375 2.05859375 7.46875 C-5.98803818 13.70458995 -12.28037281 19.93831579 -17 29 C-17.66 29 -18.32 29 -19 29 C-20.21485385 27.27578573 -21.34818704 25.49365116 -22.4375 23.6875 C-24.75771202 19.76631075 -24.75771202 19.76631075 -27.7109375 16.34375 C-29 15 -29 15 -29.1875 11.8125 C-29.125625 10.884375 -29.06375 9.95625 -29 9 C-28.34 9 -27.68 9 -27 9 C-26.67 8.34 -26.34 7.68 -26 7 C-25.12988281 7.21269531 -25.12988281 7.21269531 -24.2421875 7.4296875 C-19.47390235 8.43792295 -19.47390235 8.43792295 -15.13671875 6.73046875 C-13.69897479 5.20710232 -12.34421408 3.60649975 -11 2 C-10.34 2 -9.68 2 -9 2 C-9 2.66 -9 3.32 -9 4 C-7.35 3.67 -5.7 3.34 -4 3 C-3.67 3.66 -3.34 4.32 -3 5 C-2.01 3.35 -1.02 1.7 0 0 Z " fill="#16193C" transform="translate(268,207)"/>
<path d="M0 0 C7.92 0 15.84 0 24 0 C24 1.98 24 3.96 24 6 C21.36 6 18.72 6 16 6 C16 13.92 16 21.84 16 30 C13.36 30 10.72 30 8 30 C8 22.08 8 14.16 8 6 C5.36 6 2.72 6 0 6 C0 4.02 0 2.04 0 0 Z " fill="#EEEEF2" transform="translate(316,306)"/>
<path d="M0 0 C0.495 0.99 0.495 0.99 1 2 C-9.95681242 17.81312855 -27.69337053 27.25923801 -45.5 33.6875 C-49.31844431 35.11941662 -52.5165025 36.89538693 -56 39 C-56 38.01 -56 37.02 -56 36 C-55.01 36 -54.02 36 -53 36 C-53 35.01 -53 34.02 -53 33 C-54.98 33 -56.96 33 -59 33 C-58.67 34.32 -58.34 35.64 -58 37 C-62.39251833 39.02055843 -66.15340923 40.40895235 -71 41 C-59.73547507 29.22345121 -43.1791188 24.2004951 -28 19.4375 C-16.18619192 15.61538562 -7.56430822 9.80558473 0 0 Z " fill="#79B63A" transform="translate(335,178)"/>
<path d="M0 0 C3.63 0 7.26 0 11 0 C11 10.23 11 20.46 11 31 C8.69 31 6.38 31 4 31 C4 22.75 4 14.5 4 6 C2.68 6 1.36 6 0 6 C0 4.02 0 2.04 0 0 Z " fill="#FDFEFE" transform="translate(57,305)"/>
<path d="M0 0 C4.10703441 0.85563217 5.55401113 2.24378009 8 5.625 C8.66154724 9.74129392 8.39475662 11.85193494 6.5 15.5625 C3.45855278 18.07169396 1.75886447 18.31547708 -2.09375 18.03515625 C-4 17.625 -4 17.625 -6.5 16.125 C-8.59158203 12.63902996 -8.8876276 9.52284294 -8 5.625 C-5.56226471 2.18349135 -4.14182881 0.862881 0 0 Z " fill="#181641" transform="translate(360,311.375)"/>
<path d="M0 0 C2.875 1.4375 2.875 1.4375 5 4 C5.90705593 8.29865635 5.72920717 11.75427109 3.5 15.5625 C-0.26364476 17.72659573 -2.68055941 17.47993784 -7 17 C-9.30594538 15.36487509 -9.91545196 14.45625474 -10.43359375 11.66015625 C-10.44403416 4.71728595 -10.44403416 4.71728595 -8.375 1.375 C-5.25214775 -0.43296709 -3.56003292 -0.58122986 0 0 Z " fill="#181741" transform="translate(221,312)"/>
<path d="M0 0 C-0.33 0.99 -0.66 1.98 -1 3 C-1.99 3 -2.98 3 -4 3 C-4.0928125 4.0828125 -4.0928125 4.0828125 -4.1875 5.1875 C-5.26006081 8.9002105 -7.23789899 10.29927901 -10 13 C-11.62897596 15.29573818 -13.15579698 17.63772876 -14.66796875 20.01171875 C-16 22 -16 22 -18 24 C-18.125 17.25 -18.125 17.25 -17 15 C-18.65 15.33 -20.3 15.66 -22 16 C-22.33 15.34 -22.66 14.68 -23 14 C-24.32 15.65 -25.64 17.3 -27 19 C-27.66 18.67 -28.32 18.34 -29 18 C-20.44506104 7.22037243 -20.44506104 7.22037243 -12.9453125 5.5 C-10.69652673 5.03609737 -10.69652673 5.03609737 -8 3 C-7.67 2.01 -7.34 1.02 -7 0 C-4.05610218 -1.17755913 -3.10046087 -1.03348696 0 0 Z " fill="#7CBE37" transform="translate(283,211)"/>
<path d="M0 0 C1.1055189 0.93590504 2.20935453 1.87379858 3.3125 2.8125 C3.92738281 3.33457031 4.54226562 3.85664063 5.17578125 4.39453125 C7 6 7 6 8.52734375 7.609375 C10.46794019 9.44187456 12.68006861 10.21047339 15.1328125 11.1875 C17 12 17 12 20.125 13.9375 C24.38343188 16.45994951 29.02935319 17.60797341 33.75390625 18.984375 C38.00861464 20.31557137 41.9949997 22.05441846 46 24 C42.71023192 25.09658936 41.28696233 24.79953138 38 24 C38 24.66 38 25.32 38 26 C38.66 26 39.32 26 40 26 C40 26.66 40 27.32 40 28 C38.68 27.67 37.36 27.34 36 27 C36 26.34 36 25.68 36 25 C34.948125 24.814375 33.89625 24.62875 32.8125 24.4375 C23.33536337 22.00147544 15.24116599 16.5563426 7.8125 10.375 C7.25989502 9.9200415 6.70729004 9.46508301 6.13793945 8.99633789 C2.99710038 6.27539445 1.17757567 4.00231241 0 0 Z " fill="#79B63A" transform="translate(166,181)"/>
<path d="M0 0 C2.37174189 2.37174189 2.95815317 4.3000692 4.125 7.4375 C8.47542431 18.05915 15.13139947 25.83532041 24 33 C23.01 33.495 23.01 33.495 22 34 C20.515 33.505 20.515 33.505 19 33 C18.01 34.32 17.02 35.64 16 37 C7.01603571 25.82704949 1.52247723 14.33228565 0 0 Z " fill="#E8E8EF" transform="translate(150,131)"/>
<path d="M0 0 C2.4375 0.9375 2.4375 0.9375 3.75 2.5 C5.13845703 7.42271129 5.19813074 11.41623853 2.9375 15.9375 C2.4425 16.5975 1.9475 17.2575 1.4375 17.9375 C-0.9375 17.6875 -0.9375 17.6875 -3.5625 16.9375 C-5.54258319 13.94372234 -5.85895693 11.42051824 -5.875 7.875 C-5.89175781 7.01777344 -5.90851563 6.16054688 -5.92578125 5.27734375 C-5.5625 2.9375 -5.5625 2.9375 -4.203125 1.125 C-2.5625 -0.0625 -2.5625 -0.0625 0 0 Z " fill="#161440" transform="translate(88.5625,311.0625)"/>
<path d="M0 0 C0.495 0.99 0.495 0.99 1 2 C-7.81119475 14.71652283 -20.42891304 22.5847839 -34.25 29.125 C-35.21583008 29.58604126 -35.21583008 29.58604126 -36.20117188 30.05639648 C-37.77176474 30.77174321 -39.38370923 31.39494874 -41 32 C-41.66 31.67 -42.32 31.34 -43 31 C-42.67 30.34 -42.34 29.68 -42 29 C-41.01 29 -40.02 29 -39 29 C-39 28.01 -39 27.02 -39 26 C-36.03 25.67 -33.06 25.34 -30 25 C-30 24.01 -30 23.02 -30 22 C-31.98 22.33 -33.96 22.66 -36 23 C-33.06309397 21.04206264 -30.91290615 20.29581973 -27.5625 19.3125 C-15.97576768 15.54399968 -7.41214049 9.60833026 0 0 Z " fill="#6A9845" transform="translate(335,178)"/>
<path d="M0 0 C1.3632556 4.38799792 0.24073818 7.78613234 -1.0625 12.0625 C-1.29001953 12.81893799 -1.51753906 13.57537598 -1.75195312 14.35473633 C-4.5638806 23.30394319 -8.63458736 31.0729333 -15 38 C-15.12375 37.071875 -15.12375 37.071875 -15.25 36.125 C-15.80115872 33.81418662 -15.80115872 33.81418662 -18.046875 32.8671875 C-19.01367188 32.43792969 -19.01367188 32.43792969 -20 32 C-19.5153125 31.57332031 -19.030625 31.14664063 -18.53125 30.70703125 C-9.42066767 22.20966119 -3.61360731 11.86309243 0 0 Z " fill="#ECEDF2" transform="translate(349,130)"/>
<path d="M0 0 C2.5 -0.3125 2.5 -0.3125 5 0 C7 2 7 2 7.265625 5.1875 C7.26046875 6.445625 7.2553125 7.70375 7.25 9 C7.25515625 10.258125 7.2603125 11.51625 7.265625 12.8125 C7 16 7 16 5 18 C1.70285207 17.67028521 0.3773161 17.3773161 -2 15 C-2.265625 12.28515625 -2.265625 12.28515625 -2.25 9.0625 C-2.25515625 8.00160156 -2.2603125 6.94070313 -2.265625 5.84765625 C-2 3 -2 3 0 0 Z " fill="#1E1C43" transform="translate(116,311)"/>
<path d="M0 0 C2.475 0.99 2.475 0.99 5 2 C5.33 1.34 5.66 0.68 6 0 C5.67 2.31 5.34 4.62 5 7 C6.32 7.33 7.64 7.66 9 8 C6.03 10.97 3.06 13.94 0 17 C-3.43931848 15.28034076 -5.0110624 14.21668005 -7.5625 11.5625 C-8.14128906 10.96566406 -8.72007812 10.36882812 -9.31640625 9.75390625 C-9.87199219 9.17511719 -10.42757812 8.59632813 -11 8 C-11.9977247 6.99772986 -12.99695588 5.99694659 -14 5 C-13.34 5 -12.68 5 -12 5 C-11.34 4.34 -10.68 3.68 -10 3 C-10 4.32 -10 5.64 -10 7 C-8.68 7 -7.36 7 -6 7 C-5.34 7.66 -4.68 8.32 -4 9 C-1.49701566 6.06171403 -0.53069061 3.82097239 0 0 Z " fill="#EDECF0" transform="translate(251,199)"/>
<path d="M0 0 C5.40321351 6.69629025 7.03859959 14.25871506 7.8125 22.6875 C8.51190063 28.86238843 9.84811887 32.31599997 14.1484375 36.77734375 C16.18651622 38.36735894 16.18651622 38.36735894 20 38 C20.99 37.505 20.99 37.505 22 37 C21.01 39.475 21.01 39.475 20 42 C15.17965738 41.58682778 13.09007389 39.61980085 10 36 C10 35.34 10 34.68 10 34 C9.34 34 8.68 34 8 34 C6.67770811 31.35541621 6.90322806 29.32238699 6.9375 26.375 C6.94652344 25.37210937 6.95554688 24.36921875 6.96484375 23.3359375 C6.98224609 22.17964844 6.98224609 22.17964844 7 21 C6.34 21 5.68 21 5 21 C4.80664062 20.10796875 4.61328125 19.2159375 4.4140625 18.296875 C4.15367187 17.12640625 3.89328125 15.9559375 3.625 14.75 C3.36976563 13.58984375 3.11453125 12.4296875 2.8515625 11.234375 C2.14880936 8.10464413 2.14880936 8.10464413 0.8984375 5.828125 C0 4 0 4 0 0 Z " fill="#172628" transform="translate(232,231)"/>
<path d="M0 0 C4.10703441 0.85563217 5.55401113 2.24378009 8 5.625 C8.3125 9.4375 8.3125 9.4375 8 12.625 C7.34 11.635 6.68 10.645 6 9.625 C4.68 10.615 3.36 11.605 2 12.625 C2.04125 11.51125 2.0825 10.3975 2.125 9.25 C2.41121859 5.58133975 2.41121859 5.58133975 0 3.625 C-2.02077346 3.56598078 -2.02077346 3.56598078 -4 4.625 C-5.77148372 7.10433197 -5.77148372 7.10433197 -7 9.625 C-7.8125 7.9375 -7.8125 7.9375 -8 5.625 C-5.56110418 2.37313891 -4.01954774 0.83740578 0 0 Z " fill="#27254D" transform="translate(360,311.375)"/>
<path d="M0 0 C0.33 0 0.66 0 1 0 C1 2.64 1 5.28 1 8 C5.95514502 7.12527407 5.95514502 7.12527407 9.4375 3.875 C9.623125 3.25625 9.80875 2.6375 10 2 C10.27429625 7.39449293 10.36055646 10.51925805 7 15 C4.625 14.75 4.625 14.75 2 14 C-0.0728552 10.91872876 -0.22112945 8.40291922 -0.125 4.75 C-0.09792969 3.41195313 -0.09792969 3.41195313 -0.0703125 2.046875 C-0.04710938 1.37140625 -0.02390625 0.6959375 0 0 Z " fill="#2B294E" transform="translate(83,314)"/>
<path d="M0 0 C3.63 1.32 7.26 2.64 11 4 C11 5.65 11 7.3 11 9 C9.35 9 7.7 9 6 9 C5.67 8.01 5.34 7.02 5 6 C2.36 6 -0.28 6 -3 6 C-3.33 6.66 -3.66 7.32 -4 8 C-4 6.02 -4 4.04 -4 2 C-3.01 2 -2.02 2 -1 2 C-0.67 1.34 -0.34 0.68 0 0 Z " fill="#1F1E45" transform="translate(291,321)"/>
<path d="M0 0 C0.99 0.33 1.98 0.66 3 1 C3.29530838 7.49678438 2.17293889 13.6221448 1 20 C0.34 20 -0.32 20 -1 20 C-2.42242024 15.55493675 -3.54915308 11.72271651 -3 7 C-2.01 6.34 -1.02 5.68 0 5 C-0.66 3.68 -1.32 2.36 -2 1 C-1.34 0.67 -0.68 0.34 0 0 Z " fill="#14143D" transform="translate(270,305)"/>
<path d="M0 0 C0.33 0 0.66 0 1 0 C1 1.65 1 3.3 1 5 C3.97 5 6.94 5 10 5 C8 9 8 9 5 11 C-1.27099664 10.77603583 -1.27099664 10.77603583 -3.9375 7.9375 C-4.288125 7.298125 -4.63875 6.65875 -5 6 C-3.68 6 -2.36 6 -1 6 C-0.67 4.02 -0.34 2.04 0 0 Z " fill="#353555" transform="translate(150,319)"/>
<path d="M0 0 C0.98188992 3.07587222 0.99226328 4.9549895 0.07421875 8.0390625 C-0.14556641 8.78414062 -0.36535156 9.52921875 -0.59179688 10.296875 C-0.82962891 11.06515625 -1.06746094 11.8334375 -1.3125 12.625 C-1.53873047 13.40101563 -1.76496094 14.17703125 -1.99804688 14.9765625 C-3.73153144 20.73153144 -3.73153144 20.73153144 -6 23 C-6.66 23 -7.32 23 -8 23 C-9.62514468 24.45833358 -9.62514468 24.45833358 -11 26 C-11.66 25.67 -12.32 25.34 -13 25 C-12.32904297 24.12601563 -12.32904297 24.12601563 -11.64453125 23.234375 C-6.29957595 15.98620534 -2.84082335 8.52247004 0 0 Z " fill="#DADAE5" transform="translate(349,130)"/>
<path d="M0 0 C5.60461531 0.42089996 10.72086547 0.91613111 16 3 C16 3.33 16 3.66 16 4 C14.865625 3.979375 13.73125 3.95875 12.5625 3.9375 C7.09068799 4.54222789 4.40167697 8.13680325 0.8828125 12.06640625 C0.26148438 12.70449219 -0.35984375 13.34257812 -1 14 C-1.66 14 -2.32 14 -3 14 C-3 14.99 -3 15.98 -3 17 C-3.66 16.67 -4.32 16.34 -5 16 C-3.625 13.5 -3.625 13.5 -2 11 C-1.34 11 -0.68 11 0 11 C0 10.34 0 9.68 0 9 C0.66 9 1.32 9 2 9 C2.33 8.01 2.66 7.02 3 6 C3.66 6 4.32 6 5 6 C5.33 4.68 5.66 3.36 6 2 C3.03 1.505 3.03 1.505 0 1 C0 0.67 0 0.34 0 0 Z " fill="#D2D1DB" transform="translate(222,178)"/>
<path d="M0 0 C0.33 1.32 0.66 2.64 1 4 C0.34 4 -0.32 4 -1 4 C-1.66 7.3 -2.32 10.6 -3 14 C-3.66 14 -4.32 14 -5 14 C-4.95875 15.27875 -4.9175 16.5575 -4.875 17.875 C-4.85842217 23.08872856 -5.81688642 27.94007672 -7 33 C-7.99 33 -8.98 33 -10 33 C-9.505 32.505 -9.505 32.505 -9 32 C-8.69755509 29.73316039 -8.43398004 27.46110558 -8.1875 25.1875 C-7.09293325 16.12939058 -4.9277552 7.77771049 0 0 Z " fill="#192E26" transform="translate(268,230)"/>
<path d="M0 0 C2.9555377 2.75170751 5.11563315 5.41970299 7 9 C7 9.66 7 10.32 7 11 C7.66 11 8.32 11 9 11 C9.66 9.35 10.32 7.7 11 6 C12 8 12 8 11.25 11.5625 C10.8375 12.696875 10.425 13.83125 10 15 C9.01 15.33 8.02 15.66 7 16 C2.125 11.25 2.125 11.25 1 9 C1.66 9 2.32 9 3 9 C2.01 6.03 1.02 3.06 0 0 Z " fill="#7CB83F" transform="translate(242,225)"/>
<path d="M0 0 C1.1055189 0.93590504 2.20935453 1.87379858 3.3125 2.8125 C3.92738281 3.33457031 4.54226562 3.85664063 5.17578125 4.39453125 C7 6 7 6 8.51171875 7.60546875 C10.15067495 9.30003843 10.15067495 9.30003843 13.5 10.5 C18.25641026 12.53846154 18.25641026 12.53846154 20 15 C20 15.99 20 16.98 20 18 C15.26376868 16.48049614 12.03314327 13.86037019 8.3125 10.6875 C7.44141602 9.9769043 7.44141602 9.9769043 6.55273438 9.25195312 C3.240977 6.453231 1.21604635 4.30715771 0 0 Z " fill="#6B964C" transform="translate(166,181)"/>
<path d="M0 0 C5 1.66666667 10 3.33333333 15 5 C14.38125 5.04125 13.7625 5.0825 13.125 5.125 C12.42375 5.41375 11.7225 5.7025 11 6 C10.29618843 7.98723268 9.6288189 9.98777953 9 12 C8.01 12.33 7.02 12.66 6 13 C5.01 12.01 4.02 11.02 3 10 C3.99 9.01 4.98 8.02 6 7 C5.67 6.34 5.34 5.68 5 5 C5.33 4.34 5.66 3.68 6 3 C4.02 2.34 2.04 1.68 0 1 C0 0.67 0 0.34 0 0 Z " fill="#312F59" transform="translate(210,192)"/>
<path d="M0 0 C-0.33 0.99 -0.66 1.98 -1 3 C-1.99 3 -2.98 3 -4 3 C-4 3.99 -4 4.98 -4 6 C-5.32 6 -6.64 6 -8 6 C-8 6.66 -8 7.32 -8 8 C-9.3921875 8.1546875 -9.3921875 8.1546875 -10.8125 8.3125 C-14.03254358 9.0070192 -15.02579865 9.47740939 -17 12 C-17.33 10.68 -17.66 9.36 -18 8 C-17.06027344 7.63648438 -17.06027344 7.63648438 -16.1015625 7.265625 C-15.28429687 6.93046875 -14.46703125 6.5953125 -13.625 6.25 C-12.81289063 5.92515625 -12.00078125 5.6003125 -11.1640625 5.265625 C-8.63881803 3.78876722 -8.14334357 2.62485917 -7 0 C-4.04680182 -1.23843794 -3.12561472 -1.04187157 0 0 Z " fill="#7FC92D" transform="translate(283,211)"/>
<path d="M0 0 C7.06003155 0.45548591 12.55085113 2.17048932 19 5 C20.6645742 5.67187422 22.33069295 6.33997257 24 7 C24 7.99 24 8.98 24 10 C15.82602049 7.41874331 7.93359166 4.22988119 0 1 C0 0.67 0 0.34 0 0 Z " fill="#2B422F" transform="translate(200,200)"/>
<path d="M0 0 C2.33294775 -0.04241723 4.66702567 -0.04092937 7 0 C8 1 8 1 8.125 3.5 C8 6 8 6 7 7 C4.66702567 7.04092937 2.33294775 7.04241723 0 7 C0 4.69 0 2.38 0 0 Z " fill="#171636" transform="translate(181,312)"/>
<path d="M0 0 C0 0.33 0 0.66 0 1 C-0.84304688 1.13277344 -1.68609375 1.26554688 -2.5546875 1.40234375 C-3.65039062 1.57894531 -4.74609375 1.75554687 -5.875 1.9375 C-6.96554687 2.11152344 -8.05609375 2.28554687 -9.1796875 2.46484375 C-11.93821546 2.85551159 -11.93821546 2.85551159 -14 4 C-14 4.99 -14 5.98 -14 7 C-13.01 7.66 -12.02 8.32 -11 9 C-11 9.66 -11 10.32 -11 11 C-12.9375 10.1875 -12.9375 10.1875 -15 9 C-15.33 8.01 -15.66 7.02 -16 6 C-20.3164922 5.23826608 -23.74433453 4.83936396 -28 6 C-27 4 -27 4 -25.26928711 3.40576172 C-24.5294458 3.24865723 -23.78960449 3.09155273 -23.02734375 2.9296875 C-22.20943359 2.75566406 -21.39152344 2.58164063 -20.54882812 2.40234375 C-19.68708984 2.22832031 -18.82535156 2.05429688 -17.9375 1.875 C-17.10283203 1.69324219 -16.26816406 1.51148438 -15.40820312 1.32421875 C-10.16515688 0.23719591 -5.35200395 -0.18561863 0 0 Z " fill="#C2C1CE" transform="translate(288,177)"/>
<path d="M0 0 C2.7427508 -0.47114738 5.19558897 -0.17805784 8 0 C8.33 0.33 8.66 0.66 9 1 C10.51469448 1.23192865 12.03754562 1.41215238 13.5625 1.5625 C14.38878906 1.64628906 15.21507812 1.73007812 16.06640625 1.81640625 C16.70449219 1.87699219 17.34257812 1.93757813 18 2 C18 2.33 18 2.66 18 3 C15.69 3 13.38 3 11 3 C11 3.66 11 4.32 11 5 C13.31 5 15.62 5 18 5 C18 5.33 18 5.66 18 6 C13.05 6 8.1 6 3 6 C3.66 4.68 4.32 3.36 5 2 C2.69 2.33 0.38 2.66 -2 3 C-1.34 2.01 -0.68 1.02 0 0 Z " fill="#282748" transform="translate(148,313)"/>
<path d="M0 0 C0 0.66 0 1.32 0 2 C1.32 2.33 2.64 2.66 4 3 C1.37964982 4.36389525 -1.24556999 5.71632173 -3.875 7.0625 C-4.99455078 7.64741211 -4.99455078 7.64741211 -6.13671875 8.24414062 C-7.20986328 8.79038086 -7.20986328 8.79038086 -8.3046875 9.34765625 C-9.2944458 9.85824585 -9.2944458 9.85824585 -10.30419922 10.37915039 C-10.86381348 10.58403076 -11.42342773 10.78891113 -12 11 C-12.66 10.67 -13.32 10.34 -14 10 C-13.67 9.34 -13.34 8.68 -13 8 C-12.01 8 -11.02 8 -10 8 C-10 7.01 -10 6.02 -10 5 C-5.545 4.505 -5.545 4.505 -1 4 C-1 3.01 -1 2.02 -1 1 C-2.98 1.33 -4.96 1.66 -7 2 C-4 0 -4 0 0 0 Z " fill="#62933B" transform="translate(306,199)"/>
<path d="M0 0 C2.42622466 2.42622466 3.21500413 4.63526937 4.5 7.8125 C4.9228125 8.85019531 5.345625 9.88789063 5.78125 10.95703125 C6.1834375 11.96121094 6.585625 12.96539062 7 14 C7.3815625 14.95261719 7.763125 15.90523437 8.15625 16.88671875 C8.4346875 17.58410156 8.713125 18.28148437 9 19 C8.01 19.99 7.02 20.98 6 22 C2.70769307 14.77610324 1.02656524 7.86132853 0 0 Z " fill="#E3E4EF" transform="translate(150,131)"/>
<path d="M0 0 C3.69230769 0.69230769 3.69230769 0.69230769 5 2 C6.34747084 2.23075082 7.70377565 2.41153063 9.0625 2.5625 C10.361875 2.706875 11.66125 2.85125 13 3 C13 3.33 13 3.66 13 4 C11.35 4.33 9.7 4.66 8 5 C7.67 5.99 7.34 6.98 7 8 C4.69 7.34 2.38 6.68 0 6 C-0.38218767 4.34385343 -0.71395102 2.67542976 -1 1 C-0.67 0.67 -0.34 0.34 0 0 Z " fill="#464567" transform="translate(297,311)"/>
<path d="M0 0 C1.4391134 0.28359887 2.87625518 0.57721399 4.3125 0.875 C5.11300781 1.03742188 5.91351563 1.19984375 6.73828125 1.3671875 C9 2 9 2 12 4 C11.34 4 10.68 4 10 4 C10.495 4.45375 10.99 4.9075 11.5 5.375 C13 7 13 7 13 9 C8.77142855 7.69115646 4.79839435 6.29670356 1 4 C0.33203125 1.8984375 0.33203125 1.8984375 0 0 Z " fill="#73AC3F" transform="translate(185,196)"/>
<path d="M0 0 C1.32 0.33 2.64 0.66 4 1 C3.29875 1.474375 2.5975 1.94875 1.875 2.4375 C-1.90511656 5.80673433 -4.34083651 9.72340718 -7 14 C-7.33 12.68 -7.66 11.36 -8 10 C-7.34 10 -6.68 10 -6 10 C-6.37125 9.13375 -6.37125 9.13375 -6.75 8.25 C-7 6 -7 6 -5.25 3.75 C-3 2 -3 2 0 2 C0 1.34 0 0.68 0 0 Z " fill="#79B63E" transform="translate(275,217)"/>
<path d="M0 0 C2.9375 0.75 2.9375 0.75 6 2 C6.6875 4.0625 6.6875 4.0625 7 6 C7.99 6.33 8.98 6.66 10 7 C7.69 7.33 5.38 7.66 3 8 C3 7.34 3 6.68 3 6 C1.68 5.67 0.36 5.34 -1 5 C-0.67 3.35 -0.34 1.7 0 0 Z " fill="#80C930" transform="translate(224,213)"/>
<path d="M0 0 C5.60635584 6.87179044 7.43131097 15.32749225 8 24 C7.67 23.01 7.34 22.02 7 21 C6.34 21 5.68 21 5 21 C4.80664062 20.10796875 4.61328125 19.2159375 4.4140625 18.296875 C4.15367187 17.12640625 3.89328125 15.9559375 3.625 14.75 C3.36976563 13.58984375 3.11453125 12.4296875 2.8515625 11.234375 C2.14880936 8.10464413 2.14880936 8.10464413 0.8984375 5.828125 C0 4 0 4 0 0 Z " fill="#1D3328" transform="translate(232,231)"/>
<path d="M0 0 C0.33 0.66 0.66 1.32 1 2 C-0.98 2.33 -2.96 2.66 -5 3 C-5.12375 3.53625 -5.2475 4.0725 -5.375 4.625 C-6.12206016 7.4638286 -7.05303364 10.22223202 -8 13 C-7.01 13.33 -6.02 13.66 -5 14 C-5.33 14.99 -5.66 15.98 -6 17 C-8.12085751 15.2841869 -8.92868886 14.38482316 -9.43359375 11.66015625 C-9.44407401 4.6907818 -9.44407401 4.6907818 -7.3125 1.375 C-4.63064217 -0.21961817 -3.06890491 -0.34098943 0 0 Z " fill="#29294A" transform="translate(398,312)"/>
<path d="M0 0 C0 0.66 0 1.32 0 2 C-1.98 2.99 -1.98 2.99 -4 4 C-4 4.66 -4 5.32 -4 6 C-4.66 6 -5.32 6 -6 6 C-5.67 6.99 -5.34 7.98 -5 9 C-6.65 9.33 -8.3 9.66 -10 10 C-10.33 9.01 -10.66 8.02 -11 7 C-9.54634731 5.82750647 -8.08692581 4.66216184 -6.625 3.5 C-5.40683594 2.52546875 -5.40683594 2.52546875 -4.1640625 1.53125 C-2 0 -2 0 0 0 Z " fill="#302D53" transform="translate(269,201)"/>
<path d="M0 0 C0.33 0.66 0.66 1.32 1 2 C-3 3 -3 3 -5.0625 3.25 C-7.92461306 4.35791473 -8.64134923 6.350631 -10 9 C-10.8125 7.3125 -10.8125 7.3125 -11 5 C-7.68274928 0.57699904 -5.4997699 -0.63950813 0 0 Z " fill="#2F2D4E" transform="translate(363,312)"/>
<path d="M0 0 C0.515625 0.2475 1.03125 0.495 1.5625 0.75 C0.9025 0.75 0.2425 0.75 -0.4375 0.75 C-0.4375 1.41 -0.4375 2.07 -0.4375 2.75 C-2.0875 2.75 -3.7375 2.75 -5.4375 2.75 C-5.64375 3.389375 -5.85 4.02875 -6.0625 4.6875 C-7.4375 6.75 -7.4375 6.75 -10.5625 7.5 C-11.985625 7.62375 -11.985625 7.62375 -13.4375 7.75 C-10.06114471 3.96848208 -5.37676858 -0.55146344 0 0 Z " fill="#283E2F" transform="translate(292.4375,210.25)"/>
<path d="M0 0 C2.475 0.495 2.475 0.495 5 1 C5 1.66 5 2.32 5 3 C8.02734375 3.68359375 8.02734375 3.68359375 11.0546875 4.3671875 C13 5 13 5 15 7 C13.68 7.33 12.36 7.66 11 8 C11 7.34 11 6.68 11 6 C9.948125 5.8453125 9.948125 5.8453125 8.875 5.6875 C5.60862353 4.90640997 2.9528148 3.57941257 0 2 C0 1.34 0 0.68 0 0 Z " fill="#25392D" transform="translate(197,205)"/>
<path d="M0 0 C0.33 0.66 0.66 1.32 1 2 C-2.27530896 6.63720719 -5.30435607 10.68542782 -10 14 C-10.66 13.34 -11.32 12.68 -12 12 C-10.700625 11.2575 -10.700625 11.2575 -9.375 10.5 C-5.27365523 7.80483058 -2.73846305 4.00087509 0 0 Z " fill="#55714F" transform="translate(335,178)"/>
<path d="M0 0 C1.63129887 4.06285757 0.29968777 7.20102184 -0.9375 11.25 C-1.31777344 12.51328125 -1.69804687 13.7765625 -2.08984375 15.078125 C-2.39019531 16.04234375 -2.69054687 17.0065625 -3 18 C-3.99 17.67 -4.98 17.34 -6 17 C-5.566875 15.865625 -5.13375 14.73125 -4.6875 13.5625 C-3.0038144 9.08068928 -1.4853334 4.5508087 0 0 Z " fill="#CACBDD" transform="translate(349,130)"/>
<path d="M0 0 C1.32 0.66 2.64 1.32 4 2 C3.43628586 5.26954202 2.50037734 6.82575883 0 9 C-1.125 6.75 -1.125 6.75 -2 4 C-1.125 1.6875 -1.125 1.6875 0 0 Z " fill="#1B1948" transform="translate(410,307)"/>
<path d="M0 0 C0.66 0 1.32 0 2 0 C2.12117187 1.07121094 2.24234375 2.14242187 2.3671875 3.24609375 C2.53597601 4.64328752 2.70527313 6.04041991 2.875 7.4375 C2.95363281 8.14455078 3.03226563 8.85160156 3.11328125 9.58007812 C3.33927676 11.39673432 3.66300727 13.20062522 4 15 C4.66 15.33 5.32 15.66 6 16 C5.01 16 4.02 16 3 16 C0.65229357 12.47844036 0.62330386 10.49228157 0.375 6.3125 C0.30023438 5.13300781 0.22546875 3.95351562 0.1484375 2.73828125 C0.09945312 1.83464844 0.05046875 0.93101562 0 0 Z " fill="#78B146" transform="translate(239,248)"/>
<path d="M0 0 C2.2102955 1.02620862 4.07317497 2.05716794 6 3.5625 C7.89155226 5.12826104 7.89155226 5.12826104 10.125 5.4375 C12 6 12 6 13.25 8.0625 C13.4975 8.701875 13.745 9.34125 14 10 C7.56596618 8.81823869 4.14404677 6.02575885 0 1 C0 0.67 0 0.34 0 0 Z " fill="#18282B" transform="translate(169,183)"/>
<path d="M0 0 C2.56687367 3.8503105 1.83288724 5.58569763 1 10 C0.34 10 -0.32 10 -1 10 C-1.66 7.03 -2.32 4.06 -3 1 C-2.01 0.67 -1.02 0.34 0 0 Z " fill="#2D2B4C" transform="translate(270,315)"/>
<path d="M0 0 C1.04327633 3.33532281 1.03074612 6.15310627 0.75 9.625 C0.68296875 10.58664062 0.6159375 11.54828125 0.546875 12.5390625 C0 15 0 15 -3 17 C-3 15.02 -3 13.04 -3 11 C-2.34 11 -1.68 11 -1 11 C-1.01160156 10.37351562 -1.02320313 9.74703125 -1.03515625 9.1015625 C-1.04417969 8.28429687 -1.05320312 7.46703125 -1.0625 6.625 C-1.07410156 5.81289062 -1.08570313 5.00078125 -1.09765625 4.1640625 C-1 2 -1 2 0 0 Z " fill="#7BB045" transform="translate(260,247)"/>
<path d="M0 0 C1 3 1 3 -0.625 6.5625 C-2.57304614 9.79107996 -4.25750322 11.06437581 -8 12 C-7.05208333 10.578125 -6.10416667 9.15625 -5.15625 7.734375 C-4.7746875 7.16203125 -4.393125 6.5896875 -4 6 C-2 3 -2 3 0 0 Z " fill="#373655" transform="translate(341,157)"/>
<path d="M0 0 C-0.33 1.32 -0.66 2.64 -1 4 C-2.32 4.33 -3.64 4.66 -5 5 C-5.66 3.35 -6.32 1.7 -7 0 C-3.98968256 -0.93423645 -3.13349732 -1.04449911 0 0 Z " fill="#1D1A47" transform="translate(189,313)"/>
<path d="M0 0 C3.19199167 2.41556126 5.74716687 4.68003538 8 8 C7.67 8.66 7.34 9.32 7 10 C4.625 9.5 4.625 9.5 2 8 C0.91758097 5.33474712 0.50727893 2.8592085 0 0 Z " fill="#132530" transform="translate(224,221)"/>
<path d="M0 0 C1 2 1 2 0.25 5.5625 C-0.1625 6.696875 -0.575 7.83125 -1 9 C-1.99 9.33 -2.98 9.66 -4 10 C-4.33 8.68 -4.66 7.36 -5 6 C-4.01 5.67 -3.02 5.34 -2 5 C-0.78130071 2.49552484 -0.78130071 2.49552484 0 0 Z " fill="#80C13B" transform="translate(253,231)"/>
<path d="M0 0 C2.97 0 5.94 0 9 0 C8.67 0.99 8.34 1.98 8 3 C8.99 3.33 9.98 3.66 11 4 C9 5 9 5 6.8359375 4.44140625 C6.02382812 4.15136719 5.21171875 3.86132812 4.375 3.5625 C3.55773437 3.27503906 2.74046875 2.98757812 1.8984375 2.69140625 C1.27195313 2.46324219 0.64546875 2.23507813 0 2 C0 1.34 0 0.68 0 0 Z " fill="#22372E" transform="translate(188,195)"/>
<path d="M0 0 C2.40804568 2.40804568 3.00768759 4.42203775 4.125 7.625 C4.47820312 8.62789062 4.83140625 9.63078125 5.1953125 10.6640625 C5.46085938 11.43492187 5.72640625 12.20578125 6 13 C5.01 13.33 4.02 13.66 3 14 C2.49528803 12.23050388 1.99639315 10.45934777 1.5 8.6875 C1.2215625 7.70136719 0.943125 6.71523437 0.65625 5.69921875 C0 3 0 3 0 0 Z " fill="#C0C3D6" transform="translate(150,131)"/>
<path d="M0 0 C3.93774177 -0.36630156 5.56539771 -0.30233203 8.875 2 C9.926875 2.99 9.926875 2.99 11 4 C10.67 4.66 10.34 5.32 10 6 C9.34 5.67 8.68 5.34 8 5 C8 4.34 8 3.68 8 3 C7.01 3.33 6.02 3.66 5 4 C4.34 3.67 3.68 3.34 3 3 C3 2.34 3 1.68 3 1 C2.01 0.67 1.02 0.34 0 0 Z " fill="#333155" transform="translate(215,312)"/>
<path d="M0 0 C0.99 0 1.98 0 3 0 C3.33 1.65 3.66 3.3 4 5 C2.68 5.33 1.36 5.66 0 6 C-0.38218767 4.34385343 -0.71395102 2.67542976 -1 1 C-0.67 0.67 -0.34 0.34 0 0 Z " fill="#29274B" transform="translate(297,311)"/>
<path d="M0 0 C0.33 1.32 0.66 2.64 1 4 C2.32 4 3.64 4 5 4 C5.33 4.99 5.66 5.98 6 7 C5.34 7.66 4.68 8.32 4 9 C1.69 7.02 -0.62 5.04 -3 3 C-2.01 2.01 -1.02 1.02 0 0 Z " fill="#D8D7E1" transform="translate(240,202)"/>
<path d="M0 0 C0 0.66 0 1.32 0 2 C-3.4352048 4.29013653 -4.985331 4.17842973 -9 4 C-9 3.34 -9 2.68 -9 2 C-5.62902617 0.50178941 -3.79557881 0 0 0 Z " fill="#7DB941" transform="translate(315,197)"/>
<path d="M0 0 C0.99 0 1.98 0 3 0 C3 0.66 3 1.32 3 2 C1.7934375 3.175625 1.7934375 3.175625 0.5625 4.375 C-1.81810326 6.81366675 -2.63635918 7.7272326 -3 11 C-3.99 10.67 -4.98 10.34 -6 10 C-2.54117647 2.75294118 -2.54117647 2.75294118 0 0 Z " fill="#E0E0E4" transform="translate(233,189)"/>
<path d="M0 0 C1.65 0 3.3 0 5 0 C4 3 4 3 1.0625 4.75 C-0.4534375 5.36875 -0.4534375 5.36875 -2 6 C-2.66 5.67 -3.32 5.34 -4 5 C-3.67 4.34 -3.34 3.68 -3 3 C-2.01 3 -1.02 3 0 3 C0 2.01 0 1.02 0 0 Z " fill="#6DA13E" transform="translate(296,204)"/>
<path d="M0 0 C0.66 0 1.32 0 2 0 C2 0.66 2 1.32 2 2 C2.99 2.33 3.98 2.66 5 3 C-0.75 6 -0.75 6 -3 6 C-1.125 1.125 -1.125 1.125 0 0 Z " fill="#E4E4E9" transform="translate(309,180)"/>
<path d="M0 0 C0.66 0.33 1.32 0.66 2 1 C0 4 0 4 -3 5 C-3.33 5.66 -3.66 6.32 -4 7 C-5.65 7 -7.3 7 -9 7 C-6.03716687 4.61327331 -3.05729491 2.2646629 0 0 Z " fill="#1C3029" transform="translate(324,192)"/>
<path d="M0 0 C1.04449911 3.13349732 0.93423645 3.98968256 0 7 C1.32 7.33 2.64 7.66 4 8 C2.68 8.99 1.36 9.98 0 11 C0 10.34 0 9.68 0 9 C-0.66 8.67 -1.32 8.34 -2 8 C-1.34 5.36 -0.68 2.72 0 0 Z " fill="#E1E1E3" transform="translate(256,199)"/>
<path d="M0 0 C2.31 0.33 4.62 0.66 7 1 C7.33 2.32 7.66 3.64 8 5 C2.25 3.375 2.25 3.375 0 0 Z " fill="#1F3033" transform="translate(216,205)"/>
<path d="M0 0 C2 2 2 2 2.125 5.125 C2.08375 6.07375 2.0425 7.0225 2 8 C1.01 8.33 0.02 8.66 -1 9 C-0.67 6.03 -0.34 3.06 0 0 Z " fill="#343251" transform="translate(260,317)"/>
<path d="M0 0 C0 0.99 0 1.98 0 3 C-4.455 3.495 -4.455 3.495 -9 4 C-5.8155864 0.8155864 -4.35822804 0 0 0 Z " fill="#82C636" transform="translate(305,200)"/>
<path d="M0 0 C1.17539996 0.92652701 2.34010577 1.86663387 3.5 2.8125 C4.1496875 3.33457031 4.799375 3.85664063 5.46875 4.39453125 C7 6 7 6 7 9 C3.26115668 6.34345343 1.35021826 4.41889613 0 0 Z " fill="#587153" transform="translate(166,181)"/>
<path d="M0 0 C1.65 0 3.3 0 5 0 C5.33 1.65 5.66 3.3 6 5 C3.5625 4.1875 3.5625 4.1875 1 3 C0.67 2.01 0.34 1.02 0 0 Z " fill="#6C9E44" transform="translate(180,194)"/>
<path d="M0 0 C0 3 0 3 -1 6 C-0.34 6.33 0.32 6.66 1 7 C0.01 7 -0.98 7 -2 7 C-2.66 5.35 -3.32 3.7 -4 2 C-2.68 1.34 -1.36 0.68 0 0 Z " fill="#1A2431" transform="translate(248,224)"/>
<path d="M0 0 C2.31 0.33 4.62 0.66 7 1 C7 2.65 7 4.3 7 6 C5.83054208 5.19152271 4.66449539 4.37810888 3.5 3.5625 C2.8503125 3.11003906 2.200625 2.65757812 1.53125 2.19140625 C1.0259375 1.79824219 0.520625 1.40507812 0 1 C0 0.67 0 0.34 0 0 Z " fill="#1B282D" transform="translate(232,215)"/>
<path d="M0 0 C3.39914975 1.13304992 4.05254451 2.12518475 6 5 C5.67 5.66 5.34 6.32 5 7 C2.5 5.75 2.5 5.75 0 4 C0 2.68 0 1.36 0 0 Z " fill="#131B37" transform="translate(162,179)"/>
<path d="M0 0 C0.99 0.33 1.98 0.66 3 1 C2.67 2.32 2.34 3.64 2 5 C1.34 4.67 0.68 4.34 0 4 C0 2.68 0 1.36 0 0 Z M0 5 C0.66 5 1.32 5 2 5 C1.67 5.99 1.34 6.98 1 8 C0.67 7.01 0.34 6.02 0 5 Z " fill="#141141" transform="translate(115,318)"/>
<path d="M0 0 C1.32 0 2.64 0 4 0 C4 0.66 4 1.32 4 2 C4.66 2 5.32 2 6 2 C5.67 3.32 5.34 4.64 5 6 C3.35 4.02 1.7 2.04 0 0 Z " fill="#73A642" transform="translate(223,219)"/>
</svg>
